<svg width="310" height="112" viewBox="0 0 310 112" fill="none" xmlns="http://www.w3.org/2000/svg">
<g filter="url(#filter0_i_302_4610)">
<path d="M254 0H56C25.0721 0 0 25.0721 0 56C0 86.9279 25.0721 112 56 112H254C284.928 112 310 86.9279 310 56C310 25.0721 284.928 0 254 0Z" fill="#FFD500"/>
</g>
<path d="M123.4 57.429C122.8 56.3193 121.891 55.4071 120.784 54.8025C120.931 53.661 121.004 52.5111 121.003 51.3602C120.997 44.0625 118.097 37.0651 112.937 31.9039C107.778 26.7427 100.782 23.8395 93.4841 23.8316C92.6484 23.8316 91.8028 23.8316 90.9571 23.951C90.7545 23.1042 90.7106 22.2271 90.8278 21.3643C91.0252 19.8411 91.7025 18.4203 92.7614 17.3078C93.8203 16.1952 95.2059 15.4486 96.717 15.1761C97.116 15.0773 97.462 14.8299 97.685 14.4845C97.907 14.139 97.989 13.7217 97.914 13.3177C97.84 12.9137 97.613 12.5536 97.282 12.311C96.95 12.0684 96.538 11.9616 96.131 12.0124C94.7597 12.2632 93.4528 12.7855 92.2867 13.5486C91.1206 14.3118 90.1188 15.3003 89.3402 16.4561C88.5616 17.612 88.0219 18.9118 87.7529 20.2792C87.4838 21.6466 87.4908 23.054 87.7735 24.4186C83.3029 25.2628 79.0797 27.1023 75.417 29.801C74.5704 29.0103 73.6731 28.2759 72.7308 27.6023C67.331 23.824 60.875 21.8495 54.2856 21.9612C49.195 21.9625 44.1686 23.0969 39.5711 25.2824C34.9735 27.4678 30.9202 30.6493 27.7051 34.5961C24.4901 38.5429 22.1941 43.156 20.9836 48.1005C19.7732 53.045 19.6787 58.197 20.707 63.1826C21.7353 68.1682 23.8607 72.8623 26.9288 76.9244C29.997 80.9864 33.9309 84.3144 38.4453 86.667C42.9596 89.0195 47.941 90.3375 53.0281 90.5254C58.1152 90.7133 63.1803 89.7663 67.8558 87.7531C68.0518 87.6695 68.2294 87.5481 68.3785 87.3959C68.5275 87.2436 68.6451 87.0635 68.7246 86.8658C68.804 86.6681 68.8438 86.4567 68.8415 86.2436C68.8392 86.0306 68.7951 85.82 68.7114 85.6241C68.6278 85.4281 68.5064 85.2505 68.3542 85.1014C68.2019 84.9524 68.0218 84.8348 67.8241 84.7553C67.6264 84.6759 67.415 84.6361 67.2019 84.6384C66.9889 84.6407 66.7784 84.6849 66.5824 84.7685C59.5839 87.7865 51.7199 88.1252 44.4878 85.72C37.2558 83.3149 31.1609 78.3338 27.3639 71.7255C27.2644 48.8431 35.0942 48.7138 44.1676 48.5645C47.6099 48.5048 51.1318 48.4551 54.395 47.1617C57.1906 46.0475 60.3643 43.3613 61.1801 39.8792C61.5823 38.1763 61.4194 36.3888 60.7159 34.7868C60.0125 33.1847 58.8067 31.8551 57.2808 30.9989C55.7549 30.1427 53.9918 29.8064 52.2579 30.0408C50.5239 30.2752 48.9134 31.0675 47.6696 32.2981C47.5193 32.4458 47.3996 32.6215 47.3173 32.8154C47.235 33.0093 47.1917 33.2175 47.1898 33.4282C47.188 33.6388 47.2276 33.8477 47.3065 34.043C47.3854 34.2384 47.502 34.4162 47.6497 34.5665C47.7973 34.7167 47.9731 34.8364 48.167 34.9187C48.3609 35.001 48.5691 35.0444 48.7797 35.0462C48.9904 35.048 49.1993 35.0084 49.3946 34.9295C49.5899 34.8506 49.7678 34.734 49.918 34.5864C50.6671 33.8475 51.6358 33.372 52.6785 33.2314C53.7212 33.0908 54.7813 33.2926 55.6993 33.8066C56.6173 34.3206 57.3435 35.1189 57.7686 36.0813C58.1936 37.0438 58.2946 38.1182 58.0562 39.1429C57.509 41.4909 55.1511 43.3911 53.2011 44.1771C50.5249 45.2515 47.4109 45.3013 44.1178 45.351C35.6215 45.4903 26.1203 45.6495 24.4191 64.811C23.0874 60.1855 22.8486 55.3137 23.7216 50.5801C24.5946 45.8465 26.5555 41.3804 29.4496 37.5342C32.3437 33.6879 36.0918 30.5667 40.3984 28.4167C44.705 26.2666 49.4522 25.1466 54.2657 25.1449C62.6028 25.1449 68.9204 28.1295 72.9994 31.9101L72.9298 31.9698C70.154 34.8351 68.7313 37.9391 68.8209 41.0233C68.8905 43.5702 70.8106 48.3257 75.1484 48.3257C76.0464 48.3094 76.9289 48.0885 77.7288 47.68C78.5287 47.2714 79.225 46.6859 79.7646 45.9679C80.475 45.0696 80.9832 44.0287 81.2545 42.9161C81.5258 41.8035 81.5538 40.6454 81.3366 39.521C80.6832 36.8258 79.4129 34.3192 77.6256 32.1986C80.9816 29.7916 84.8444 28.1852 88.9176 27.5028C89.1548 27.9283 89.4207 28.3371 89.7135 28.7265C90.5978 29.8818 91.7134 30.8398 92.989 31.5394C94.2646 32.2389 95.6722 32.6646 97.122 32.7891C98.571 32.9137 100.031 32.7344 101.407 32.2626C102.783 31.7909 104.046 31.0372 105.114 30.0497C108.948 32.1422 112.147 35.2276 114.377 38.9824C116.607 42.7372 117.786 47.0229 117.789 51.39C117.788 52.7736 117.672 54.1546 117.441 55.5188C117.375 55.9005 117.449 56.2934 117.65 56.6245C117.852 56.9556 118.166 57.2025 118.535 57.3195C119.363 57.614 120.065 58.1827 120.525 58.9312C120.686 59.283 120.773 59.6638 120.782 60.0503C120.79 60.4369 120.72 60.8212 120.575 61.1797C120.477 61.6094 120.29 62.0138 120.026 62.3668C119.762 62.7198 119.427 63.0136 119.043 63.2292C118.153 63.5574 117.176 63.5574 116.287 63.2292C115.932 63.0814 115.535 63.0664 115.17 63.187C114.804 63.3076 114.495 63.5556 114.297 63.8858C111.175 69.0774 106.229 72.9174 100.425 74.6544C94.6219 76.3914 88.379 75.9004 82.9184 73.2775C82.5345 73.0928 82.0929 73.0682 81.6909 73.2091C81.2888 73.3499 80.9591 73.6447 80.7744 74.0287C80.5897 74.4126 80.5651 74.8541 80.706 75.2562C80.8468 75.6583 81.1417 75.9879 81.5256 76.1726C87.5179 79.0506 94.3489 79.664 100.758 77.8994C107.167 76.1348 112.722 72.1115 116.396 66.572C117.736 66.8432 119.127 66.6902 120.376 66.1342C121.169 65.7406 121.869 65.1818 122.428 64.4954C122.988 63.809 123.394 63.0109 123.619 62.1547C123.904 61.393 124.031 60.5816 123.994 59.7694C123.956 58.9572 123.754 58.161 123.4 57.429ZM78.1629 40.1776C78.2821 40.8469 78.2549 41.5341 78.0832 42.1919C77.9114 42.8497 77.5992 43.4625 77.168 43.988C76.9349 44.3083 76.6375 44.5764 76.2949 44.7751C75.9523 44.9738 75.5719 45.0988 75.1782 45.1421C72.9298 45.1421 72.0841 41.849 72.0642 40.9636C72.0045 38.8345 73.1287 36.4667 75.2279 34.2879C76.6323 36.0083 77.635 38.0205 78.1629 40.1776ZM97.066 29.5124C95.313 29.2856 93.7052 28.4215 92.5489 27.0849C92.8574 27.0849 93.1658 27.0849 93.4742 27.0849C96.307 27.0831 99.119 27.5781 101.781 28.5474C100.364 29.3943 98.702 29.7346 97.066 29.5124ZM69.6466 67.5768C69.0404 70.0822 67.7075 72.3527 65.8154 74.1032C63.9233 75.8538 61.5562 77.0063 59.0113 77.4162C58.3143 77.5322 57.6087 77.5888 56.9021 77.5854C55.4881 77.5907 54.0829 77.3621 52.7435 76.9089C52.5394 76.847 52.3498 76.745 52.1856 76.6089C52.0215 76.4727 51.8862 76.3052 51.7876 76.1161C51.6891 75.9269 51.6293 75.7201 51.6118 75.5075C51.5943 75.295 51.6194 75.0811 51.6857 74.8784C51.7519 74.6757 51.8579 74.4883 51.9976 74.3271C52.1372 74.1659 52.3076 74.0343 52.4988 73.9398C52.69 73.8454 52.8982 73.7901 53.111 73.7772C53.3239 73.7642 53.5372 73.7939 53.7384 73.8645C55.2578 74.3803 56.8809 74.5136 58.4641 74.2525C60.3822 73.9338 62.1648 73.0601 63.5917 71.7393C65.0186 70.4185 66.0272 68.7085 66.4928 66.8207C66.6181 66.4342 66.8847 66.1093 67.2393 65.9109C67.5939 65.7126 68.0103 65.6555 68.4052 65.7511C68.8001 65.8467 69.1443 66.0879 69.369 66.4264C69.5936 66.7649 69.6821 67.1758 69.6168 67.5768H69.6466ZM46.993 62.095C46.9791 61.8199 46.9392 61.5467 46.8737 61.2792C46.8208 61.0754 46.8085 60.8631 46.8376 60.6546C46.8667 60.446 46.9366 60.2453 47.0433 60.0637C47.15 59.8822 47.2914 59.7234 47.4595 59.5966C47.6275 59.4697 47.8189 59.3771 48.0228 59.3242C48.2266 59.2713 48.4388 59.2591 48.6474 59.2882C48.8559 59.3173 49.0567 59.3872 49.2382 59.4939C49.4198 59.6006 49.5785 59.742 49.7054 59.9101C49.8323 60.0781 49.9248 60.2695 49.9777 60.4733C50.2528 61.516 50.292 62.6068 50.0923 63.6665C49.8927 64.7262 49.4592 65.728 48.8236 66.599C48.1879 67.4701 47.3661 68.1884 46.4178 68.7018C45.4695 69.2151 44.4187 69.5106 43.3418 69.5666H42.9737C41.9049 69.5648 40.8494 69.3286 39.8817 68.8749C38.9139 68.4211 38.0574 67.7606 37.3725 66.9401C37.1007 66.6129 36.97 66.1912 37.0092 65.7676C37.0484 65.3441 37.2542 64.9535 37.5814 64.6817C37.9086 64.4099 38.3304 64.2792 38.7539 64.3184C39.1774 64.3576 39.568 64.5634 39.8398 64.8906C40.3858 65.5474 41.1246 66.0158 41.9516 66.2293C42.7786 66.4428 43.6518 66.3907 44.4475 66.0803C45.2432 65.77 45.9211 65.2171 46.3851 64.5C46.8491 63.783 47.0757 62.9381 47.0329 62.085L46.993 62.095ZM66.0849 52.4545C66.0695 52.1796 66.0296 51.9066 65.9655 51.6387C65.86 51.2271 65.9223 50.7904 66.1387 50.4247C66.3552 50.059 66.708 49.7943 67.1196 49.6887C67.5312 49.5832 67.9679 49.6455 68.3336 49.8619C68.6993 50.0784 68.9641 50.4312 69.0696 50.8428C69.1965 51.3176 69.2732 51.8045 69.2984 52.2953C69.3932 54.2234 68.7196 56.1105 67.4254 57.5428C66.1311 58.975 64.3217 59.8357 62.3939 59.9361H62.0258C60.9569 59.9343 59.9015 59.6981 58.9337 59.2443C57.966 58.7906 57.1095 58.1301 56.4246 57.3096C56.2695 57.1505 56.149 56.9612 56.0706 56.7533C55.9923 56.5455 55.9577 56.3237 55.9691 56.1019C55.9805 55.8801 56.0376 55.663 56.1369 55.4643C56.2361 55.2656 56.3754 55.0895 56.5459 54.9472C56.7164 54.8049 56.9145 54.6993 57.1278 54.6372C57.341 54.5751 57.5648 54.5577 57.7851 54.5861C58.0054 54.6146 58.2174 54.6882 58.4079 54.8025C58.5983 54.9168 58.7631 55.0692 58.8919 55.2502C59.2889 55.7515 59.8009 56.1499 60.3846 56.4114C60.9682 56.6729 61.6062 56.7899 62.2447 56.7524C62.7793 56.7232 63.3029 56.5888 63.7855 56.3568C64.2681 56.1248 64.7002 55.7999 65.0569 55.4006C65.4137 55.0013 65.6881 54.5356 65.8645 54.03C66.0409 53.5245 66.1158 52.9891 66.0849 52.4545ZM98.279 63.3983C98.439 63.2485 98.627 63.1327 98.833 63.0579C99.038 62.9832 99.257 62.9511 99.475 62.9635C99.694 62.976 99.907 63.0328 100.103 63.1304C100.299 63.2281 100.472 63.3646 100.614 63.5316C100.755 63.6985 100.861 63.8925 100.925 64.1017C100.989 64.3109 101.009 64.5309 100.985 64.7484C100.962 64.9658 100.894 65.1761 100.786 65.3665C100.678 65.5568 100.533 65.7233 100.359 65.8557C98.833 67.1513 96.96 67.968 94.9722 68.2034C92.9847 68.4387 90.972 68.0824 89.1862 67.1789C87.7129 66.4335 86.4402 65.345 85.4753 64.0052C85.2492 63.6551 85.1674 63.2311 85.2472 62.8221C85.327 62.4131 85.5621 62.0508 85.9032 61.8114C86.2443 61.572 86.6648 61.474 87.0766 61.538C87.4884 61.602 87.8594 61.823 88.1117 62.1547C88.6732 62.9365 89.3906 63.5935 90.2187 64.0841C91.0468 64.5747 91.9676 64.8884 92.923 65.0052C93.8784 65.1221 94.8477 65.0396 95.7696 64.763C96.692 64.4865 97.546 64.0218 98.279 63.3983ZM91.7232 52.7928C91.5782 53.1607 91.3983 53.5138 91.1859 53.8474C90.5159 54.8723 89.5406 55.6606 88.398 56.1009C87.2554 56.5413 86.0033 56.6113 84.8187 56.3011C83.6341 55.991 82.577 55.3163 81.7968 54.3725C81.0166 53.4287 80.5528 52.2636 80.471 51.0418C80.4437 50.6158 80.5866 50.1963 80.8682 49.8755C81.1499 49.5547 81.5473 49.3587 81.9733 49.3306C82.1835 49.3144 82.3948 49.3403 82.5949 49.407C82.7949 49.4736 82.9796 49.5796 83.1381 49.7186C83.2966 49.8576 83.4257 50.0269 83.5178 50.2166C83.6099 50.4062 83.6632 50.6124 83.6745 50.8229C83.712 51.3715 83.9207 51.8945 84.2713 52.3181C84.6218 52.7418 85.0965 53.0448 85.6283 53.1843C86.1602 53.3239 86.7224 53.293 87.2358 53.096C87.7492 52.8991 88.1878 52.5459 88.4898 52.0864C88.5883 51.9359 88.6716 51.7759 88.7385 51.6089C88.8978 51.2139 89.2069 50.8979 89.5984 50.7302C89.9899 50.5624 90.4319 50.5564 90.8278 50.7135C91.0263 50.7901 91.2074 50.9057 91.3604 51.0535C91.5135 51.2013 91.6353 51.3783 91.7188 51.574C91.8023 51.7697 91.8457 51.9801 91.8464 52.1929C91.8472 52.4057 91.8053 52.6164 91.7232 52.8127V52.7928ZM98.827 58.1154C98.07 57.618 97.438 56.9525 96.981 56.1707C96.523 55.389 96.253 54.5121 96.19 53.6086C96.176 53.3983 96.203 53.1871 96.27 52.9873C96.337 52.7875 96.443 52.6028 96.582 52.4439C96.721 52.285 96.889 52.155 97.078 52.0612C97.267 51.9674 97.472 51.9118 97.683 51.8974C97.893 51.883 98.104 51.9102 98.304 51.9774C98.504 52.0447 98.688 52.1506 98.847 52.2892C99.006 52.4277 99.136 52.5963 99.23 52.7851C99.324 52.9739 99.379 53.1794 99.394 53.3897C99.431 53.9383 99.64 54.4613 99.99 54.885C100.341 55.3086 100.816 55.6116 101.348 55.7511C101.879 55.8907 102.442 55.8598 102.955 55.6628C103.468 55.4659 103.907 55.1127 104.209 54.6532C104.308 54.5027 104.391 54.3427 104.458 54.1757C104.615 53.7799 104.923 53.4627 105.313 53.2938C105.704 53.125 106.146 53.1183 106.542 53.2753C106.938 53.4323 107.255 53.7401 107.424 54.131C107.593 54.5219 107.599 54.9638 107.442 55.3596C107.125 56.1651 106.632 56.89 106 57.4817C105.368 58.0735 104.613 58.5173 103.788 58.781C102.964 59.0448 102.091 59.1219 101.232 59.0068C100.374 58.8917 99.553 58.5872 98.827 58.1154Z" fill="url(#paint0_linear_302_4610)"/>
<path d="M145.44 78H147.2C148.28 78 148.92 77.4 148.92 76.32V68.08C148.92 63.12 152.08 61.56 154.16 61.56C156.28 61.56 157.8 63.16 157.8 66.64V76.32C157.8 77.4 158.4 78 159.48 78H161.24C162.32 78 162.96 77.4 162.96 76.32V66.4C162.96 60.84 160.32 57.24 155.36 57.24C152.24 57.24 149.84 58.72 148.92 61.28V50.76C148.92 49.68 148.28 49.08 147.2 49.08H145.44C144.36 49.08 143.76 49.68 143.76 50.76V76.32C143.76 77.4 144.36 78 145.44 78ZM176.734 78.44C179.414 78.44 181.894 77.44 183.614 74.96V76.32C183.614 77.4 184.214 78 185.294 78H187.054C188.134 78 188.774 77.4 188.774 76.32V59.4C188.774 58.32 188.134 57.68 187.054 57.68H185.294C184.214 57.68 183.614 58.32 183.614 59.4V60.72C181.894 58.24 179.414 57.24 176.734 57.24C170.854 57.24 166.814 61.92 166.814 67.84C166.814 73.76 170.854 78.44 176.734 78.44ZM177.734 74.16C174.094 74.16 171.974 71.32 171.974 67.84C171.974 64.4 174.094 61.52 177.734 61.52C181.294 61.52 183.654 64.2 183.694 67.84C183.654 71.48 181.294 74.16 177.734 74.16ZM195.948 86.96H197.708C198.788 86.96 199.428 86.36 199.428 85.28V74.96C201.108 77.44 203.588 78.44 206.308 78.44C212.188 78.44 216.188 73.76 216.188 67.84C216.188 61.92 212.188 57.24 206.308 57.24C203.588 57.24 201.108 58.24 199.428 60.72V59.4C199.428 58.32 198.788 57.68 197.708 57.68H195.948C194.868 57.68 194.268 58.32 194.268 59.4V85.28C194.268 86.36 194.868 86.96 195.948 86.96ZM205.308 74.16C201.748 74.16 199.348 71.48 199.308 67.84C199.348 64.2 201.748 61.52 205.308 61.52C208.948 61.52 211.028 64.4 211.028 67.84C211.028 71.32 208.948 74.16 205.308 74.16ZM222.042 86.96H223.802C224.882 86.96 225.522 86.36 225.522 85.28V74.96C227.202 77.44 229.682 78.44 232.402 78.44C238.282 78.44 242.282 73.76 242.282 67.84C242.282 61.92 238.282 57.24 232.402 57.24C229.682 57.24 227.202 58.24 225.522 60.72V59.4C225.522 58.32 224.882 57.68 223.802 57.68H222.042C220.962 57.68 220.362 58.32 220.362 59.4V85.28C220.362 86.36 220.962 86.96 222.042 86.96ZM231.402 74.16C227.842 74.16 225.442 71.48 225.402 67.84C225.442 64.2 227.842 61.52 231.402 61.52C235.042 61.52 237.122 64.4 237.122 67.84C237.122 71.32 235.042 74.16 231.402 74.16ZM249.095 54.68C251.055 54.68 252.375 53.36 252.375 51.68C252.375 50 251.095 48.68 249.095 48.68C247.095 48.68 245.855 50 245.855 51.68C245.855 53.36 247.135 54.68 249.095 54.68ZM248.215 78H250.015C251.095 78 251.695 77.4 251.695 76.32V59.4C251.695 58.32 251.095 57.68 250.015 57.68H248.215C247.135 57.68 246.535 58.32 246.535 59.4V76.32C246.535 77.4 247.135 78 248.215 78ZM265.235 78.44C269.035 78.44 271.675 76.44 271.675 72.68C271.675 72.52 271.635 71.84 271.475 71.16C271.355 70.64 270.955 70.44 270.435 70.44H268.315C267.675 70.44 267.475 70.8 267.555 71.44C267.595 71.72 267.595 71.96 267.595 72.16C267.595 73.4 266.675 74.16 265.555 74.16C264.475 74.16 263.555 73.44 263.555 71.6V61.6H268.595C269.195 61.6 269.515 61.28 269.515 60.68V58.6C269.515 58.04 269.195 57.68 268.595 57.68H263.555V53.44C263.555 52.6 263.075 52.12 262.235 52.12H260.835C260.075 52.12 259.555 52.52 259.435 53.32L258.715 57.68H256.235C255.635 57.68 255.315 58.04 255.315 58.6V60.68C255.315 61.28 255.635 61.6 256.235 61.6H258.475V71.4C258.475 76.84 261.875 78.44 265.235 78.44ZM278.549 86.96H280.029C280.989 86.96 281.589 86.6 281.989 85.68L293.189 59.68C293.709 58.48 293.149 57.68 291.909 57.68H289.789C288.789 57.68 288.149 58.12 287.789 59.04L283.109 71.4L278.229 59.04C277.909 58.12 277.269 57.68 276.309 57.68H274.149C272.869 57.68 272.309 58.52 272.829 59.68L280.469 76.92L277.229 85C276.749 86.16 277.269 86.96 278.549 86.96Z" fill="#64358C"/>
<path d="M152.4 35.78C154.12 35.28 154.84 34.02 154.84 32.72C154.84 30.4 152.82 29 150.04 29H145.58C145.04 29 144.74 29.3 144.74 29.84V42.16C144.74 42.7 145.04 43 145.58 43H150.66C153.56 43 155.5 41.48 155.5 39.16C155.5 37.58 154.46 36.04 152.4 35.78ZM149.92 31.12C151.18 31.12 152.2 31.78 152.2 32.98C152.2 34.02 151.38 35.04 149.3 35.04H147.38V31.12H149.92ZM150.6 40.84H147.38V36.86H149.76C151.94 36.86 152.86 37.92 152.86 39C152.86 40.08 151.96 40.84 150.6 40.84ZM162.441 43.22C165.541 43.22 167.941 40.86 167.941 37.92C167.941 35.02 165.541 32.62 162.441 32.62C159.341 32.62 156.961 35 156.961 37.92C156.961 40.86 159.341 43.22 162.441 43.22ZM162.441 41.06C160.761 41.06 159.441 39.68 159.441 37.94C159.441 36.18 160.761 34.78 162.441 34.78C164.121 34.78 165.441 36.18 165.441 37.94C165.441 39.68 164.121 41.06 162.441 41.06ZM174.785 43.22C177.885 43.22 180.285 40.86 180.285 37.92C180.285 35.02 177.885 32.62 174.785 32.62C171.685 32.62 169.305 35 169.305 37.92C169.305 40.86 171.685 43.22 174.785 43.22ZM174.785 41.06C173.105 41.06 171.785 39.68 171.785 37.94C171.785 36.18 173.105 34.78 174.785 34.78C176.465 34.78 177.785 36.18 177.785 37.94C177.785 39.68 176.465 41.06 174.785 41.06ZM190.009 43.22C190.369 43.22 191.089 43.18 191.809 42.82C192.329 42.56 192.429 42.2 192.289 41.92L191.909 41.14C191.749 40.86 191.549 40.8 191.209 40.92C190.909 41.04 190.589 41.06 190.449 41.06C189.709 41.06 189.369 40.66 188.849 39.88L187.349 37.52L190.269 33.88C190.709 33.32 190.489 32.84 189.769 32.84H188.729C188.269 32.84 187.949 33 187.709 33.36L184.909 37.04V29.38C184.909 28.84 184.589 28.54 184.049 28.54H183.169C182.629 28.54 182.329 28.84 182.329 29.38V42.16C182.329 42.7 182.629 43 183.169 43H184.049C184.589 43 184.909 42.7 184.909 42.16V38.02L186.609 40.92C187.309 42.1 188.149 43.22 190.009 43.22ZM201.49 43H202.25C202.75 43 203.07 42.78 203.21 42.3L204.99 36.7L206.77 42.3C206.91 42.78 207.23 43 207.71 43H208.49C208.97 43 209.29 42.8 209.45 42.32L212.49 33.82C212.71 33.22 212.43 32.84 211.81 32.84H210.83C210.33 32.84 210.03 33.06 209.87 33.54L207.91 39.54L206.11 33.84C205.97 33.38 205.67 33.14 205.17 33.14H204.81C204.31 33.14 204.01 33.38 203.85 33.84L202.07 39.54L200.09 33.54C199.95 33.06 199.63 32.84 199.15 32.84H198.17C197.53 32.84 197.27 33.22 197.47 33.82L200.53 42.32C200.69 42.78 201.01 43 201.49 43ZM215.934 31.34C216.914 31.34 217.574 30.68 217.574 29.84C217.574 29 216.934 28.34 215.934 28.34C214.934 28.34 214.314 29 214.314 29.84C214.314 30.68 214.954 31.34 215.934 31.34ZM215.494 43H216.394C216.934 43 217.234 42.7 217.234 42.16V33.7C217.234 33.16 216.934 32.84 216.394 32.84H215.494C214.954 32.84 214.654 33.16 214.654 33.7V42.16C214.654 42.7 214.954 43 215.494 43ZM224.004 43.22C225.904 43.22 227.224 42.22 227.224 40.34C227.224 40.26 227.204 39.92 227.124 39.58C227.064 39.32 226.864 39.22 226.604 39.22H225.544C225.224 39.22 225.124 39.4 225.164 39.72C225.184 39.86 225.184 39.98 225.184 40.08C225.184 40.7 224.724 41.08 224.164 41.08C223.624 41.08 223.164 40.72 223.164 39.8V34.8H225.684C225.984 34.8 226.144 34.64 226.144 34.34V33.3C226.144 33.02 225.984 32.84 225.684 32.84H223.164V30.72C223.164 30.3 222.924 30.06 222.504 30.06H221.804C221.424 30.06 221.164 30.26 221.104 30.66L220.744 32.84H219.504C219.204 32.84 219.044 33.02 219.044 33.3V34.34C219.044 34.64 219.204 34.8 219.504 34.8H220.624V39.7C220.624 42.42 222.324 43.22 224.004 43.22ZM229.693 43H230.573C231.113 43 231.433 42.7 231.433 42.16V38.04C231.433 35.56 233.013 34.78 234.053 34.78C235.113 34.78 235.873 35.58 235.873 37.32V42.16C235.873 42.7 236.173 43 236.713 43H237.593C238.133 43 238.453 42.7 238.453 42.16V37.2C238.453 34.42 237.133 32.62 234.653 32.62C233.093 32.62 231.893 33.36 231.433 34.64V29.38C231.433 28.84 231.113 28.54 230.573 28.54H229.693C229.153 28.54 228.853 28.84 228.853 29.38V42.16C228.853 42.7 229.153 43 229.693 43Z" fill="#64358C"/>
<defs>
<filter id="filter0_i_302_4610" x="0" y="0" width="310" height="116" filterUnits="userSpaceOnUse" color-interpolation-filters="sRGB">
<feFlood flood-opacity="0" result="BackgroundImageFix"/>
<feBlend mode="normal" in="SourceGraphic" in2="BackgroundImageFix" result="shape"/>
<feColorMatrix in="SourceAlpha" type="matrix" values="0 0 0 0 0 0 0 0 0 0 0 0 0 0 0 0 0 0 127 0" result="hardAlpha"/>
<feOffset dy="4"/>
<feGaussianBlur stdDeviation="2"/>
<feComposite in2="hardAlpha" operator="arithmetic" k2="-1" k3="1"/>
<feColorMatrix type="matrix" values="0 0 0 0 0 0 0 0 0 0 0 0 0 0 0 0 0 0 0.25 0"/>
<feBlend mode="normal" in2="shape" result="effect1_innerShadow_302_4610"/>
</filter>
<linearGradient id="paint0_linear_302_4610" x1="72" y1="12" x2="72" y2="90.5488" gradientUnits="userSpaceOnUse">
<stop stop-color="#F72585"/>
<stop offset="1" stop-color="#64358C"/>
</linearGradient>
</defs>
</svg>
