<svg width="48" height="48" viewBox="0 0 48 48" fill="none" xmlns="http://www.w3.org/2000/svg">
<path d="M24 48C37.2548 48 48 37.2548 48 24C48 10.7452 37.2548 0 24 0C10.7452 0 0 10.7452 0 24C0 37.2548 10.7452 48 24 48Z" fill="#8047B0"/>
<path fill-rule="evenodd" clip-rule="evenodd" d="M12.8008 17.1754C12.8008 17.1754 22.4603 22.653 24.3352 22.653C26.3003 22.653 35.8552 17.28 35.8552 17.28L35.8705 16.32C35.8705 15.2602 35.0104 14.4 33.9477 14.4H14.7227C13.6609 14.4 12.8008 15.2602 12.8008 16.32V17.1754ZM35.8552 20.16C35.8552 20.16 26.3905 25.293 24.3352 25.293C22.4603 25.293 12.8152 20.16 12.8161 20.16L12.8008 31.68C12.8008 32.7399 13.6619 33.6 14.7227 33.6H33.9477C35.0104 33.6 35.8705 32.7399 35.8705 31.68L35.8552 20.16Z" fill="white"/>
</svg>
