<svg width="13" height="14" viewBox="0 0 13 14" fill="none" xmlns="http://www.w3.org/2000/svg">
<path d="M11.7735 1.57422H11.3443V2.35538C11.3464 2.48094 11.3236 2.60566 11.2773 2.72227C11.2309 2.83887 11.162 2.94504 11.0745 3.03457C10.9869 3.12409 10.8826 3.1952 10.7675 3.24374C10.6524 3.29227 10.5288 3.31727 10.404 3.31727C10.2792 3.31727 10.1556 3.29227 10.0405 3.24374C9.9254 3.1952 9.82105 3.12409 9.73353 3.03457C9.646 2.94504 9.57707 2.83887 9.53074 2.72227C9.48442 2.60566 9.46162 2.48094 9.46369 2.35538V1.57422H3.53631V2.35538C3.53838 2.48094 3.51558 2.60566 3.46926 2.72227C3.42293 2.83887 3.354 2.94504 3.26647 3.03457C3.17895 3.12409 3.0746 3.1952 2.95949 3.24374C2.84437 3.29227 2.72081 3.31727 2.596 3.31727C2.47119 3.31727 2.34763 3.29227 2.23252 3.24374C2.11741 3.1952 2.01305 3.12409 1.92553 3.03457C1.83801 2.94504 1.76908 2.83887 1.72275 2.72227C1.67642 2.60566 1.65363 2.48094 1.65569 2.35538V1.57422H1.22675C1.06568 1.57418 0.906187 1.60607 0.75737 1.66805C0.608552 1.73004 0.473326 1.82091 0.359412 1.93547C0.245499 2.05004 0.155128 2.18606 0.0934595 2.33577C0.0317914 2.48547 3.38691e-05 2.64593 0 2.80799V12.3514C0.00013678 12.6787 0.129443 12.9925 0.359488 13.2238C0.589533 13.4552 0.901482 13.5852 1.22675 13.5852H11.7738C12.0989 13.585 12.4108 13.455 12.6407 13.2237C12.8706 12.9923 12.9999 12.6786 13 12.3514V2.80799C13 2.64595 12.9683 2.48549 12.9066 2.33578C12.845 2.18608 12.7546 2.05006 12.6408 1.93549C12.5269 1.82092 12.3917 1.73005 12.2428 1.66806C12.094 1.60607 11.9346 1.57418 11.7735 1.57422ZM11.4872 11.6574C11.4872 11.904 11.2677 12.1036 10.9971 12.1036H2.00339C1.7323 12.1036 1.51331 11.904 1.51331 11.6574V5.47614C1.51331 5.22907 1.73282 5.02924 2.00339 5.02924H10.9966C11.268 5.02924 11.4867 5.22907 11.4867 5.47614V11.6574H11.4872Z" fill="#F72585"/>
<path d="M2.59584 2.80797C2.71508 2.80783 2.8294 2.76009 2.91369 2.67524C2.99798 2.59038 3.04536 2.47533 3.04543 2.35536V0.463444C3.04686 0.403112 3.03629 0.3431 3.01434 0.286939C2.99238 0.230778 2.95949 0.179601 2.91759 0.13642C2.87569 0.093239 2.82562 0.058925 2.77035 0.035497C2.71507 0.012069 2.6557 0 2.59572 0C2.53573 0 2.47636 0.012069 2.42108 0.035497C2.36581 0.058925 2.31575 0.093239 2.27384 0.13642C2.23194 0.179601 2.19905 0.230778 2.17709 0.286939C2.15514 0.3431 2.14457 0.403112 2.146 0.463444V2.35536C2.14614 2.47536 2.19358 2.5904 2.27791 2.67525C2.36224 2.7601 2.47658 2.80783 2.59584 2.80797Z" fill="#F72585"/>
<path d="M10.4041 2.80797C10.5234 2.80783 10.6377 2.76009 10.722 2.67524C10.8063 2.59038 10.8536 2.47533 10.8537 2.35536V0.463444C10.8552 0.403112 10.8446 0.3431 10.8226 0.286939C10.8007 0.230778 10.7678 0.179601 10.7259 0.13642C10.684 0.093239 10.6339 0.058925 10.5786 0.035497C10.5234 0.012069 10.464 0 10.404 0C10.344 0 10.2846 0.012069 10.2294 0.035497C10.1741 0.058925 10.124 0.093239 10.0821 0.13642C10.0402 0.179601 10.0073 0.230778 9.98538 0.286939C9.96342 0.3431 9.95286 0.403112 9.95429 0.463444V2.35536C9.95443 2.47536 10.0019 2.5904 10.0862 2.67525C10.1705 2.7601 10.2849 2.80783 10.4041 2.80797Z" fill="#F72585"/>
<path d="M2.37305 5.80023H4.75225V8.2509H2.37305V5.80023Z" fill="#F72585"/>
<path d="M5.36792 5.80023H7.74713V8.2509H5.36792V5.80023Z" fill="#F72585"/>
<path d="M2.37305 8.81122H4.75225V11.2614H2.37305V8.81122Z" fill="#F72585"/>
<path d="M5.36792 8.81122H7.74713V11.2614H5.36792V8.81122Z" fill="#F72585"/>
<path d="M8.47449 5.80023H10.8537V8.2509H8.47449V5.80023Z" fill="#F72585"/>
<path d="M8.47449 8.81122H10.8537V11.2614H8.47449V8.81122Z" fill="#F72585"/>
</svg>
