<svg width="11" height="17" viewBox="0 0 11 17" fill="none" xmlns="http://www.w3.org/2000/svg">
<path d="M7.40567 16.0943C8.01005 16.6987 8.98995 16.6987 9.59433 16.0943C10.1987 15.4899 10.1987 14.5101 9.59433 13.9057L7.40567 16.0943ZM9.59433 3.09433C10.1987 2.48995 10.1987 1.51005 9.59433 0.905668C8.98995 0.301285 8.01005 0.301285 7.40567 0.905668L9.59433 3.09433ZM2.61283 7.88717L1.51849 6.79284L2.61283 7.88717ZM9.59433 13.9057L3.70716 8.01849L1.51849 10.2072L7.40567 16.0943L9.59433 13.9057ZM3.70716 8.98151L9.59433 3.09433L7.40567 0.905668L1.51849 6.79284L3.70716 8.98151ZM3.70716 8.01849C3.97309 8.28442 3.97309 8.71558 3.70716 8.98151L1.51849 6.79284C0.575657 7.73568 0.575658 9.26432 1.51849 10.2072L3.70716 8.01849Z" fill="#F72585"/>
</svg>
