<svg width="19" height="27" viewBox="0 0 19 27" fill="none" xmlns="http://www.w3.org/2000/svg">
<path d="M9.49962 0C7.80501 8.85483e-05 6.14126 0.465212 4.68087 1.34715C3.22048 2.22909 2.0166 3.49573 1.19404 5.01577C0.371477 6.53582 -0.0398182 8.25392 0.00279062 9.99196C0.0453994 11.73 0.540361 13.4247 1.43636 14.9004L9.49962 27L17.5629 14.9004C18.4589 13.4247 18.9538 11.73 18.9965 9.99196C19.0391 8.25392 18.6278 6.53582 17.8052 5.01577C16.9826 3.49573 15.7788 2.22909 14.3184 1.34715C12.858 0.465212 11.1942 8.85483e-05 9.49962 0ZM9.49962 13.332C8.69118 13.3319 7.90778 13.0442 7.28288 12.518C6.65799 11.9918 6.23027 11.2596 6.0726 10.4461C5.91494 9.63257 6.03708 8.78816 6.41822 8.0567C6.79936 7.32524 7.41592 6.752 8.16283 6.43464C8.90975 6.11728 9.74082 6.07544 10.5144 6.31626C11.288 6.55707 11.9563 7.06564 12.4054 7.7553C12.8545 8.44497 13.0567 9.27306 12.9774 10.0985C12.8981 10.9239 12.5423 11.6956 11.9706 12.282C11.6461 12.6149 11.2609 12.879 10.8369 13.0591C10.4129 13.2393 9.95852 13.332 9.49962 13.332Z" fill="#F72585"/>
</svg>
