<svg width="10" height="10" viewBox="0 0 10 10" fill="none" xmlns="http://www.w3.org/2000/svg">
<path fill-rule="evenodd" clip-rule="evenodd" d="M5 9.04167C7.23215 9.04167 9.04167 7.23215 9.04167 5C9.04167 2.76785 7.23215 0.958333 5 0.958333C2.76785 0.958333 0.958333 2.76785 0.958333 5C0.958333 7.23215 2.76785 9.04167 5 9.04167ZM5 10C7.76142 10 10 7.76142 10 5C10 2.23858 7.76142 0 5 0C2.23858 0 0 2.23858 0 5C0 7.76142 2.23858 10 5 10Z" fill="#F72585"/>
<path fill-rule="evenodd" clip-rule="evenodd" d="M5.00065 2.4375C5.26529 2.4375 5.47982 2.65203 5.47982 2.91667V4.83559L6.83722 6.58082C6.99969 6.78971 6.96206 7.09076 6.75316 7.25323C6.54427 7.4157 6.24322 7.37807 6.08075 7.16918L4.62242 5.29418C4.557 5.21007 4.52148 5.10655 4.52148 5V2.91667C4.52148 2.65203 4.73601 2.4375 5.00065 2.4375Z" fill="#F72585"/>
</svg>
