<svg width="50" height="50" viewBox="0 0 50 50" fill="none" xmlns="http://www.w3.org/2000/svg">
<path fill-rule="evenodd" clip-rule="evenodd" d="M25.1121 0C11.3895 0 0.265137 11.1012 0.265137 24.7952C0.265137 38.4891 11.3895 49.5903 25.1121 49.5903C38.8346 49.5903 49.959 38.4891 49.959 24.7952C49.959 11.1012 38.8346 0 25.1121 0ZM24.4199 21.0125L24.3678 20.1545C24.2114 17.9308 25.5844 15.8997 27.7569 15.1118C28.5563 14.8316 29.912 14.7966 30.7983 15.0417C31.1459 15.1468 31.8064 15.497 32.2756 15.8122L33.1273 16.39L34.0658 16.0923C34.5872 15.9347 35.2824 15.6721 35.5952 15.497C35.8907 15.3394 36.1514 15.2519 36.1514 15.3044C36.1514 15.602 35.5083 16.6176 34.9695 17.1779C34.2396 17.9658 34.4481 18.0359 35.9254 17.5106C36.8118 17.2129 36.8292 17.2129 36.6554 17.5456C36.5511 17.7207 36.0123 18.3335 35.4388 18.8938C34.4655 19.8569 34.4134 19.9619 34.4134 20.7674C34.4134 22.0105 33.8224 24.602 33.2315 26.0202C32.1366 28.6817 29.7903 31.4307 27.444 32.8139C24.1418 34.7575 19.7447 35.2478 16.0428 34.1096C14.8088 33.7244 12.6885 32.7439 12.6885 32.5688C12.6885 32.5163 13.3315 32.4462 14.1136 32.4287C15.7473 32.3937 17.3811 31.9385 18.7714 31.133L19.71 30.5727L18.6324 30.205C17.103 29.6797 15.73 28.4716 15.3824 27.3334C15.2781 26.9657 15.3128 26.9482 16.2861 26.9482L17.2942 26.9307L16.4425 26.528C15.4345 26.0202 14.5134 25.1623 14.0615 24.2868C13.7313 23.6564 13.3142 22.0631 13.4358 21.9405C13.4706 21.888 13.8356 21.993 14.2527 22.1331C15.4519 22.5708 15.6083 22.4658 14.9131 21.7304C13.6096 20.3997 13.2099 18.4211 13.8356 16.5476L14.131 15.7071L15.2781 16.8452C17.6244 19.139 20.3878 20.5047 23.5509 20.9074L24.4199 21.0125Z" fill="white"/>
</svg>
