<svg width="12" height="14" viewBox="0 0 12 14" fill="none" xmlns="http://www.w3.org/2000/svg">
<path d="M1.61455 14C1.14909 14 0.763636 13.8631 0.458182 13.5894C0.152727 13.3156 0 12.9767 0 12.5726C0 12.1555 0.152727 11.8101 0.458182 11.5363C0.763636 11.2626 1.14909 11.1257 1.61455 11.1257H1.65818V8.13408H1.2C0.850909 8.13408 0.56 8.03631 0.327273 7.84078C0.109091 7.64525 0 7.39758 0 7.09777C0 6.78492 0.109091 6.53073 0.327273 6.33519C0.56 6.13966 0.850909 6.0419 1.2 6.0419H1.65818V4.61453C1.65818 3.71508 1.86182 2.91992 2.26909 2.22905C2.67636 1.52514 3.29455 0.977653 4.12364 0.586591C4.96727 0.19553 6.03636 0 7.33091 0C7.98546 0 8.63273 0.0651765 9.27273 0.19553C9.92727 0.325884 10.4727 0.495344 10.9091 0.70391C11.3018 0.860335 11.5782 1.07542 11.7382 1.34916C11.8982 1.60987 11.9564 1.88361 11.9127 2.17039C11.8691 2.45717 11.7455 2.71136 11.5418 2.93296C11.3527 3.15456 11.0982 3.29795 10.7782 3.36313C10.4582 3.4283 10.0945 3.37616 9.68727 3.2067C9.35273 3.05028 9.00364 2.93948 8.64 2.8743C8.29091 2.80912 7.96364 2.77654 7.65818 2.77654C6.94545 2.77654 6.42909 2.92644 6.10909 3.22626C5.80364 3.52607 5.65091 3.93668 5.65091 4.4581V6.0419H7.87636C8.22545 6.0419 8.51636 6.13966 8.74909 6.33519C8.98182 6.53073 9.09818 6.78492 9.09818 7.09777C9.09818 7.39758 8.98182 7.64525 8.74909 7.84078C8.51636 8.03631 8.22545 8.13408 7.87636 8.13408H5.65091V11.1257H10.3855C10.8509 11.1257 11.2364 11.2626 11.5418 11.5363C11.8473 11.8101 12 12.1555 12 12.5726C12 12.9767 11.8473 13.3156 11.5418 13.5894C11.2364 13.8631 10.8509 14 10.3855 14H1.61455Z" fill="#F72585"/>
</svg>
