<svg width="49" height="48" viewBox="0 0 49 48" fill="none" xmlns="http://www.w3.org/2000/svg">
<path fill-rule="evenodd" clip-rule="evenodd" d="M24.4282 0C11.1734 0 0.428223 10.7452 0.428223 24C0.428223 37.2548 11.1734 48 24.4282 48C37.6831 48 48.4282 37.2548 48.4282 24C48.4282 10.7452 37.6831 0 24.4282 0ZM11.9501 19.8777H17.389V36.2194H11.9501V19.8777ZM17.7468 14.8227C17.7115 13.2204 16.5657 12 14.705 12C12.8444 12 11.628 13.2204 11.628 14.8227C11.628 16.3918 12.8085 17.6473 14.6344 17.6473H14.6692C16.5657 17.6473 17.7468 16.3918 17.7468 14.8227ZM30.7417 19.494C34.3208 19.494 37.0039 21.8301 37.0039 26.8496L37.0037 36.2194H31.565V27.4766C31.565 25.2806 30.778 23.7821 28.8091 23.7821C27.3064 23.7821 26.4114 24.7923 26.0183 25.768C25.8745 26.1177 25.8392 26.6049 25.8392 27.0933V36.2199H20.3997C20.3997 36.2199 20.4713 21.4116 20.3997 19.8781H25.8392V22.1928C26.5611 21.0801 27.854 19.494 30.7417 19.494Z" fill="white"/>
</svg>
