<svg width="51" height="50" viewBox="0 0 51 50" fill="none" xmlns="http://www.w3.org/2000/svg">
<path fill-rule="evenodd" clip-rule="evenodd" d="M25.7439 0C12.0213 0 0.896973 11.1012 0.896973 24.7952C0.896973 38.4891 12.0213 49.5903 25.7439 49.5903C39.4665 49.5903 50.5908 38.4891 50.5908 24.7952C50.5908 11.1012 39.4665 0 25.7439 0ZM20.2815 11.6507C21.695 11.5865 22.1467 11.5708 25.7457 11.5708H25.7415C29.3416 11.5708 29.7916 11.5865 31.2051 11.6507C32.6159 11.7152 33.5794 11.9381 34.4242 12.2651C35.2966 12.6026 36.0338 13.0544 36.7709 13.79C37.508 14.5251 37.9608 15.2629 38.3004 16.1326C38.6262 16.9735 38.8498 17.9344 38.916 19.3423C38.9795 20.7529 38.9961 21.2036 38.9961 24.7951C38.9961 28.3865 38.9795 28.8362 38.916 30.2467C38.8498 31.654 38.6262 32.6153 38.3004 33.4564C37.9608 34.3259 37.508 35.0637 36.7709 35.7987C36.0346 36.5343 35.2964 36.9872 34.425 37.325C33.5819 37.652 32.6178 37.8749 31.2071 37.9394C29.7935 38.0036 29.3432 38.0193 25.744 38.0193C22.1453 38.0193 21.6939 38.0036 20.2804 37.9394C18.8699 37.8749 17.9066 37.652 17.0635 37.325C16.1925 36.9872 15.4531 36.5343 14.7168 35.7987C13.98 35.0637 13.5272 34.3259 13.1884 33.4561C12.861 32.6153 12.6377 31.6543 12.5728 30.2465C12.5087 28.8359 12.4927 28.3865 12.4927 24.7951C12.4927 21.2036 12.5093 20.7526 12.5725 19.342C12.636 17.9347 12.8596 16.9735 13.1882 16.1324C13.5277 15.2629 13.9805 14.5251 14.7176 13.79C15.4542 13.0547 16.1936 12.6029 17.0652 12.2651C17.9077 11.9381 18.8707 11.7152 20.2815 11.6507Z" fill="white"/>
<path fill-rule="evenodd" clip-rule="evenodd" d="M24.5568 13.954C24.7876 13.9536 25.0359 13.9537 25.3039 13.9539L25.7456 13.954C29.2838 13.954 29.7032 13.9667 31.1004 14.03C32.3925 14.089 33.0937 14.3044 33.5608 14.4854C34.1793 14.7251 34.6202 15.0117 35.0837 15.4745C35.5475 15.9373 35.8346 16.3782 36.0754 16.9953C36.2568 17.4609 36.4729 18.1607 36.5317 19.45C36.5952 20.8441 36.609 21.2629 36.609 24.7921C36.609 28.3213 36.5952 28.74 36.5317 30.1341C36.4727 31.4235 36.2568 32.1232 36.0754 32.5888C35.8352 33.206 35.5475 33.6454 35.0837 34.108C34.6199 34.5708 34.1795 34.8574 33.5608 35.097C33.0943 35.2789 32.3925 35.4938 31.1004 35.5527C29.7035 35.6161 29.2838 35.6299 25.7456 35.6299C22.2071 35.6299 21.7877 35.6161 20.3907 35.5527C19.0987 35.4932 18.3974 35.2778 17.93 35.0968C17.3116 34.8571 16.8699 34.5705 16.4061 34.1077C15.9423 33.6449 15.6551 33.2052 15.4144 32.5877C15.233 32.1221 15.0168 31.4224 14.958 30.133C14.8945 28.7389 14.8818 28.3202 14.8818 24.7888C14.8818 21.2573 14.8945 20.8408 14.958 19.4467C15.0171 18.1574 15.233 17.4576 15.4144 16.9914C15.6546 16.3743 15.9423 15.9335 16.4061 15.4706C16.8699 15.0078 17.3116 14.7213 17.93 14.481C18.3972 14.2992 19.0987 14.0843 20.3907 14.0251C21.6132 13.97 22.087 13.9534 24.5568 13.9507V13.954ZM32.8193 16.1499C31.9414 16.1499 31.2291 16.8598 31.2291 17.7362C31.2291 18.6123 31.9414 19.3231 32.8193 19.3231C33.6972 19.3231 34.4095 18.6123 34.4095 17.7362C34.4095 16.8601 33.6972 16.1493 32.8193 16.1493V16.1499ZM18.9399 24.7953C18.9399 21.045 21.9869 18.0043 25.745 18.0042C29.5033 18.0042 32.5496 21.0449 32.5496 24.7953C32.5496 28.5458 29.5036 31.5852 25.7453 31.5852C21.987 31.5852 18.9399 28.5458 18.9399 24.7953Z" fill="white"/>
<path d="M25.7454 20.3877C28.1848 20.3877 30.1627 22.3611 30.1627 24.7958C30.1627 27.2301 28.1848 29.2038 25.7454 29.2038C23.3057 29.2038 21.3281 27.2301 21.3281 24.7958C21.3281 22.3611 23.3057 20.3877 25.7454 20.3877V20.3877Z" fill="white"/>
</svg>
