<svg width="20" height="20" viewBox="0 0 20 20" fill="none" xmlns="http://www.w3.org/2000/svg">
<path d="M14.6151 12.8478C15.6558 11.5 16.298 9.82608 16.298 8C16.298 3.58696 12.6442 0 8.149 0C3.65376 0 0 3.58696 0 8C0 12.413 3.65376 16 8.149 16C9.76821 16.0032 11.3506 15.5258 12.6885 14.6304L17.7595 19.6087C17.8802 19.7309 18.0244 19.8285 18.1838 19.8956C18.3432 19.9628 18.5145 19.9983 18.688 20C18.862 20.0005 19.0343 19.9661 19.1942 19.8988C19.3542 19.8315 19.4984 19.7328 19.618 19.6087C20.1273 19.1087 20.1273 18.2826 19.618 17.7609L14.6151 12.8478ZM2.65728 8C2.65728 5.04348 5.11527 2.60869 8.149 2.60869C11.1827 2.60869 13.6407 5.04348 13.6407 8C13.6407 8.70799 13.4987 9.40906 13.2227 10.0632C12.9467 10.7173 12.5422 11.3116 12.0322 11.8122C11.5223 12.3129 10.9169 12.71 10.2506 12.9809C9.5843 13.2519 8.87018 13.3913 8.149 13.3913C7.42782 13.3913 6.71369 13.2519 6.04741 12.9809C5.38112 12.71 4.77572 12.3129 4.26577 11.8122C3.75582 11.3116 3.3513 10.7173 3.07531 10.0632C2.79933 9.40906 2.65728 8.70799 2.65728 8Z" fill="#F72585"/>
</svg>
