<svg width="49" height="48" viewBox="0 0 49 48" fill="none" xmlns="http://www.w3.org/2000/svg">
<path fill-rule="evenodd" clip-rule="evenodd" d="M24.7144 0C11.4595 0 0.714355 10.7452 0.714355 24C0.714355 37.2548 11.4595 48 24.7144 48C37.9692 48 48.7144 37.2548 48.7144 24C48.7144 10.7452 37.9692 0 24.7144 0ZM19.438 11.2771C20.8034 11.215 21.2396 11.1998 24.7159 11.1998H24.7119C28.1893 11.1998 28.624 11.215 29.9893 11.2771C31.352 11.3395 32.2827 11.5552 33.0987 11.8718C33.9414 12.1985 34.6534 12.6358 35.3654 13.3478C36.0774 14.0593 36.5147 14.7734 36.8427 15.6153C37.1574 16.4292 37.3734 17.3593 37.4374 18.722C37.4987 20.0873 37.5147 20.5236 37.5147 23.9999C37.5147 27.4762 37.4987 27.9114 37.4374 29.2768C37.3734 30.6389 37.1574 31.5693 36.8427 32.3835C36.5147 33.2251 36.0774 33.9392 35.3654 34.6507C34.6542 35.3627 33.9411 35.8011 33.0995 36.128C32.2851 36.4446 31.3539 36.6603 29.9912 36.7227C28.6258 36.7848 28.1909 36.8 24.7143 36.8C21.2383 36.8 20.8023 36.7848 19.4369 36.7227C18.0745 36.6603 17.1441 36.4446 16.3297 36.128C15.4884 35.8011 14.7742 35.3627 14.063 34.6507C13.3513 33.9392 12.9139 33.2251 12.5867 32.3832C12.2705 31.5693 12.0547 30.6392 11.9921 29.2765C11.9302 27.9111 11.9147 27.4762 11.9147 23.9999C11.9147 20.5236 11.9307 20.0871 11.9918 18.7217C12.0531 17.3596 12.2691 16.4292 12.5865 15.615C12.9145 14.7734 13.3518 14.0593 14.0638 13.3478C14.7753 12.6361 15.4894 12.1987 16.3313 11.8718C17.1452 11.5552 18.0753 11.3395 19.438 11.2771Z" fill="#8047B0"/>
<path fill-rule="evenodd" clip-rule="evenodd" d="M23.5676 13.5064C23.7905 13.506 24.0304 13.5061 24.2892 13.5062L24.7159 13.5064C28.1335 13.5064 28.5386 13.5186 29.8882 13.58C31.1362 13.637 31.8135 13.8456 32.2647 14.0208C32.8621 14.2528 33.2879 14.5301 33.7357 14.9781C34.1837 15.4261 34.461 15.8528 34.6936 16.4501C34.8688 16.9008 35.0776 17.5782 35.1344 18.8262C35.1957 20.1755 35.209 20.5808 35.209 23.9969C35.209 27.4129 35.1957 27.8183 35.1344 29.1676C35.0773 30.4156 34.8688 31.093 34.6936 31.5436C34.4616 32.141 34.1837 32.5663 33.7357 33.014C33.2877 33.4621 32.8623 33.7394 32.2647 33.9714C31.8141 34.1474 31.1362 34.3554 29.8882 34.4125C28.5388 34.4738 28.1335 34.4871 24.7159 34.4871C21.298 34.4871 20.8929 34.4738 19.5435 34.4125C18.2955 34.3549 17.6182 34.1463 17.1667 33.9711C16.5694 33.7391 16.1427 33.4618 15.6947 33.0138C15.2467 32.5658 14.9694 32.1402 14.7368 31.5426C14.5616 31.0919 14.3528 30.4146 14.296 29.1665C14.2347 27.8172 14.2224 27.4119 14.2224 23.9937C14.2224 20.5755 14.2347 20.1723 14.296 18.823C14.3531 17.575 14.5616 16.8976 14.7368 16.4464C14.9688 15.8491 15.2467 15.4224 15.6947 14.9744C16.1427 14.5264 16.5694 14.249 17.1667 14.0165C17.6179 13.8405 18.2955 13.6325 19.5435 13.5752C20.7243 13.5218 21.182 13.5058 23.5676 13.5032V13.5064ZM31.5486 15.6318C30.7006 15.6318 30.0126 16.319 30.0126 17.1673C30.0126 18.0153 30.7006 18.7033 31.5486 18.7033C32.3966 18.7033 33.0846 18.0153 33.0846 17.1673C33.0846 16.3193 32.3966 15.6313 31.5486 15.6313V15.6318ZM18.1425 24C18.1425 20.3699 21.0856 17.4268 24.7156 17.4266C28.3458 17.4266 31.2882 20.3698 31.2882 24C31.2882 27.6302 28.3461 30.5721 24.7159 30.5721C21.0857 30.5721 18.1425 27.6302 18.1425 24Z" fill="#8047B0"/>
<path d="M24.7154 19.7336C27.0717 19.7336 28.9822 21.6438 28.9822 24.0004C28.9822 26.3566 27.0717 28.2671 24.7154 28.2671C22.3589 28.2671 20.4487 26.3566 20.4487 24.0004C20.4487 21.6438 22.3589 19.7336 24.7154 19.7336Z" fill="#8047B0"/>
</svg>
