<svg width="35" height="35" viewBox="0 0 35 35" fill="none" xmlns="http://www.w3.org/2000/svg">
<path fill-rule="evenodd" clip-rule="evenodd" d="M17.5 0C7.83502 0 0 7.83502 0 17.5C0 27.165 7.83502 35 17.5 35C27.165 35 35 27.165 35 17.5C35 7.83502 27.165 0 17.5 0ZM13.6527 8.22289C14.6483 8.17759 14.9664 8.1665 17.5012 8.1665H17.4983C20.0339 8.1665 20.3508 8.17759 21.3464 8.22289C22.34 8.26839 23.0186 8.4257 23.6136 8.65651C24.2281 8.89471 24.7472 9.2136 25.2664 9.73277C25.7856 10.2516 26.1045 10.7723 26.3437 11.3861C26.5731 11.9796 26.7306 12.6578 26.7773 13.6514C26.822 14.647 26.8337 14.9651 26.8337 17.4999C26.8337 20.0347 26.822 20.3521 26.7773 21.3476C26.7306 22.3409 26.5731 23.0193 26.3437 23.6129C26.1045 24.2266 25.7856 24.7473 25.2664 25.2661C24.7478 25.7853 24.2279 26.105 23.6142 26.3434C23.0204 26.5742 22.3414 26.7315 21.3477 26.777C20.3522 26.8223 20.035 26.8334 17.5 26.8334C14.9654 26.8334 14.6475 26.8223 13.6519 26.777C12.6585 26.7315 11.9801 26.5742 11.3862 26.3434C10.7728 26.105 10.252 25.7853 9.73345 25.2661C9.21448 24.7473 8.89558 24.2266 8.657 23.6127C8.42638 23.0193 8.26908 22.3411 8.22338 21.3474C8.17827 20.3519 8.16699 20.0347 8.16699 17.4999C8.16699 14.9651 8.17866 14.6468 8.22319 13.6513C8.26791 12.658 8.42541 11.9796 8.6568 11.386C8.89597 10.7723 9.21486 10.2516 9.73404 9.73277C10.2528 9.21379 10.7735 8.8949 11.3874 8.65651C11.9809 8.4257 12.6591 8.26839 13.6527 8.22289Z" fill="#F72585"/>
<path fill-rule="evenodd" clip-rule="evenodd" d="M16.6638 9.84852C16.8264 9.84827 17.0013 9.84835 17.19 9.84843L17.5011 9.84852C19.9931 9.84852 20.2885 9.85747 21.2726 9.90219C22.1826 9.9438 22.6765 10.0959 23.0055 10.2236C23.441 10.3928 23.7516 10.595 24.078 10.9217C24.4047 11.2483 24.6069 11.5595 24.7765 11.995C24.9042 12.3236 25.0565 12.8175 25.0979 13.7275C25.1426 14.7114 25.1524 15.007 25.1524 17.4979C25.1524 19.9887 25.1426 20.2843 25.0979 21.2682C25.0563 22.1782 24.9042 22.6721 24.7765 23.0007C24.6073 23.4363 24.4047 23.7464 24.078 24.0729C23.7514 24.3995 23.4412 24.6018 23.0055 24.7709C22.6769 24.8993 22.1826 25.0509 21.2726 25.0925C20.2887 25.1373 19.9931 25.147 17.5011 25.147C15.0089 25.147 14.7135 25.1373 13.7296 25.0925C12.8196 25.0505 12.3257 24.8985 11.9965 24.7707C11.5609 24.6016 11.2498 24.3993 10.9231 24.0727C10.5965 23.746 10.3943 23.4357 10.2247 22.9999C10.0969 22.6713 9.94469 22.1774 9.90328 21.2674C9.85855 20.2835 9.84961 19.9879 9.84961 17.4955C9.84961 15.0031 9.85855 14.7091 9.90328 13.7252C9.94489 12.8152 10.0969 12.3213 10.2247 11.9923C10.3939 11.5567 10.5965 11.2456 10.9231 10.919C11.2498 10.5923 11.5609 10.3901 11.9965 10.2205C12.3255 10.0922 12.8196 9.9405 13.7296 9.89869C14.5906 9.8598 14.9243 9.84814 16.6638 9.84619V9.84852ZM22.4833 11.3983C21.865 11.3983 21.3633 11.8994 21.3633 12.518C21.3633 13.1363 21.865 13.638 22.4833 13.638C23.1016 13.638 23.6033 13.1363 23.6033 12.518C23.6033 11.8996 23.1016 11.3979 22.4833 11.3979V11.3983ZM12.708 17.5001C12.708 14.8531 14.8541 12.707 17.5011 12.707H17.5009C20.1479 12.707 22.2934 14.8531 22.2934 17.5001C22.2934 20.1471 20.1481 22.2923 17.5011 22.2923C14.8541 22.2923 12.708 20.1471 12.708 17.5001Z" fill="#F72585"/>
<path d="M17.5008 14.3892C19.2189 14.3892 20.6119 15.782 20.6119 17.5003C20.6119 19.2184 19.2189 20.6114 17.5008 20.6114C15.7825 20.6114 14.3896 19.2184 14.3896 17.5003C14.3896 15.782 15.7825 14.3892 17.5008 14.3892V14.3892Z" fill="#F72585"/>
</svg>
