<svg width="13" height="12" viewBox="0 0 13 12" fill="none" xmlns="http://www.w3.org/2000/svg">
<path d="M11.5672 5.63661V0.761905C11.5672 0.692444 11.5391 0.625827 11.4891 0.576711C11.439 0.527594 11.3712 0.5 11.3005 0.5C11.2297 0.5 11.1619 0.527594 11.1119 0.576711C11.0619 0.625827 11.0338 0.692444 11.0338 0.761905V5.63661C10.7688 5.69616 10.5322 5.84228 10.3627 6.05107C10.1932 6.25986 10.101 6.51895 10.101 6.78595C10.101 7.05294 10.1932 7.31204 10.3627 7.52083C10.5322 7.72962 10.7688 7.87574 11.0338 7.93529V11.2381C11.0338 11.3076 11.0619 11.3742 11.1119 11.4233C11.1619 11.4724 11.2297 11.5 11.3005 11.5C11.3712 11.5 11.439 11.4724 11.4891 11.4233C11.5391 11.3742 11.5672 11.3076 11.5672 11.2381V7.93529C11.8322 7.87574 12.0688 7.72962 12.2383 7.52083C12.4077 7.31204 12.5 7.05294 12.5 6.78595C12.5 6.51895 12.4077 6.25986 12.2383 6.05107C12.0688 5.84228 11.8322 5.69616 11.5672 5.63661ZM6.76669 1.70804V0.761905C6.76669 0.692444 6.7386 0.625827 6.68858 0.576711C6.63857 0.527594 6.57073 0.5 6.5 0.5C6.42927 0.5 6.36143 0.527594 6.31142 0.576711C6.2614 0.625827 6.23331 0.692444 6.23331 0.761905V1.70804C5.96828 1.76758 5.73167 1.91371 5.56222 2.1225C5.39276 2.33129 5.30048 2.59038 5.30048 2.85738C5.30048 3.12437 5.39276 3.38347 5.56222 3.59226C5.73167 3.80105 5.96828 3.94717 6.23331 4.00672V11.2381C6.23331 11.3076 6.2614 11.3742 6.31142 11.4233C6.36143 11.4724 6.42927 11.5 6.5 11.5C6.57073 11.5 6.63857 11.4724 6.68858 11.4233C6.7386 11.3742 6.76669 11.3076 6.76669 11.2381V4.00672C7.03172 3.94717 7.26833 3.80105 7.43778 3.59226C7.60724 3.38347 7.69952 3.12437 7.69952 2.85738C7.69952 2.59038 7.60724 2.33129 7.43778 2.1225C7.26833 1.91371 7.03172 1.76758 6.76669 1.70804ZM1.96621 7.99375V0.761905C1.96621 0.692444 1.93812 0.625827 1.8881 0.576711C1.83809 0.527594 1.77025 0.5 1.69952 0.5C1.62879 0.5 1.56095 0.527594 1.51094 0.576711C1.46093 0.625827 1.43283 0.692444 1.43283 0.761905V7.99375C1.1678 8.0533 0.931195 8.19942 0.761737 8.40821C0.592279 8.617 0.5 8.87609 0.5 9.14309C0.5 9.41009 0.592279 9.66918 0.761737 9.87797C0.931195 10.0868 1.1678 10.2329 1.43283 10.2924V11.2381C1.43283 11.2725 1.43973 11.3065 1.45313 11.3383C1.46653 11.3701 1.48618 11.399 1.51094 11.4233C1.5357 11.4476 1.5651 11.4669 1.59746 11.4801C1.62982 11.4932 1.6645 11.5 1.69952 11.5C1.73454 11.5 1.76922 11.4932 1.80158 11.4801C1.83394 11.4669 1.86334 11.4476 1.8881 11.4233C1.91287 11.399 1.93251 11.3701 1.94591 11.3383C1.95932 11.3065 1.96621 11.2725 1.96621 11.2381V10.2924C2.23124 10.2329 2.46785 10.0868 2.6373 9.87797C2.80676 9.66918 2.89904 9.41009 2.89904 9.14309C2.89904 8.87609 2.80676 8.617 2.6373 8.40821C2.46785 8.19942 2.23124 8.0533 1.96621 7.99375Z" fill="#F72585"/>
</svg>
