<svg width="10" height="14" viewBox="0 0 10 14" fill="none" xmlns="http://www.w3.org/2000/svg">
<g clip-path="url(#clip0_340_1453)">
<path d="M4.99973 0C4.10783 4.59139e-05 3.23217 0.241221 2.46355 0.698522C1.69492 1.15582 1.0613 1.8126 0.62837 2.60077C0.195444 3.38894 -0.0210276 4.27981 0.00139808 5.18102C0.0238237 6.08222 0.28433 6.96097 0.755909 7.72614L4.99973 14L9.24355 7.72614C9.71513 6.96097 9.97563 6.08222 9.99806 5.18102C10.0205 4.27981 9.80401 3.38894 9.37109 2.60077C8.93816 1.8126 8.30454 1.15582 7.53591 0.698522C6.76728 0.241221 5.89163 4.59139e-05 4.99973 0ZM4.99973 6.91286C4.57424 6.91283 4.16192 6.76368 3.83302 6.49083C3.50413 6.21797 3.27902 5.83829 3.19604 5.41648C3.11305 4.99467 3.17734 4.55682 3.37794 4.17755C3.57854 3.79827 3.90304 3.50104 4.29616 3.33648C4.68927 3.17192 5.12668 3.15023 5.53384 3.2751C5.941 3.39996 6.29274 3.66366 6.52911 4.02127C6.76548 4.37887 6.87187 4.80825 6.83014 5.23625C6.78841 5.66424 6.60115 6.06438 6.30026 6.36847C6.12947 6.54108 5.92671 6.678 5.70357 6.77141C5.48042 6.86481 5.24125 6.91288 4.99973 6.91286Z" fill="#F72585"/>
</g>
<defs>
<clipPath id="clip0_340_1453">
<rect width="10" height="14" fill="white"/>
</clipPath>
</defs>
</svg>
