<svg width="26" height="28" viewBox="0 0 26 28" fill="none" xmlns="http://www.w3.org/2000/svg">
<path d="M2 0.0380859C0.89543 0.0380859 0 0.933516 0 2.03809C0 3.14266 0.89543 4.03809 2 4.03809V0.0380859ZM24 4.03809C25.1046 4.03809 26 3.14266 26 2.03809C26 0.933516 25.1046 0.0380859 24 0.0380859V4.03809ZM2 4.03809H24V0.0380859H2V4.03809Z" fill="#F72585"/>
<path d="M2 11.5938C0.89543 11.5938 0 12.4892 0 13.5938C0 14.6983 0.89543 15.5938 2 15.5938V11.5938ZM24 15.5938C25.1046 15.5938 26 14.6983 26 13.5938C26 12.4892 25.1046 11.5938 24 11.5938V15.5938ZM2 15.5938H24V11.5938H2V15.5938Z" fill="#F72585"/>
<path d="M2 23.1492C0.89543 23.1492 0 24.0446 0 25.1492C0 26.2537 0.89543 27.1492 2 27.1492V23.1492ZM24 27.1492C25.1046 27.1492 26 26.2537 26 25.1492C26 24.0446 25.1046 23.1492 24 23.1492V27.1492ZM2 27.1492H24V23.1492H2V27.1492Z" fill="#F72585"/>
</svg>
