<svg width="16" height="15" viewBox="0 0 16 15" fill="none" xmlns="http://www.w3.org/2000/svg">
<g clip-path="url(#clip0_342_1639)">
<path d="M15.1363 0.84713C15.1018 0.822137 15.0618 0.805705 15.0197 0.799186C14.9775 0.792667 14.9345 0.796249 14.894 0.809636L10.3255 2.33413L5.75776 0.809636C5.74993 0.806752 5.74251 0.809636 5.73468 0.809636C5.71431 0.80486 5.69337 0.802919 5.67247 0.803867C5.65149 0.803121 5.63049 0.80464 5.60984 0.8084C5.60201 0.811284 5.59459 0.8084 5.58677 0.811284L0.933763 2.36132C0.880196 2.37923 0.833622 2.41353 0.80064 2.45938C0.767658 2.50523 0.749942 2.5603 0.75 2.61678V13.9343C0.75 14.0058 0.77839 14.0743 0.828924 14.1248C0.879459 14.1754 0.947998 14.2038 1.01946 14.2038C1.04842 14.2036 1.07718 14.199 1.10475 14.1902L5.6737 12.6657L10.241 14.1902C10.2686 14.1994 10.2976 14.2039 10.3267 14.2038C10.3558 14.2035 10.3847 14.199 10.4124 14.1902L15.0654 12.6393C15.1191 12.6215 15.1658 12.5872 15.1989 12.5414C15.2321 12.4955 15.2499 12.4404 15.25 12.3838V1.0655C15.2492 1.0228 15.2385 0.980865 15.2187 0.942981C15.199 0.905098 15.1708 0.872292 15.1363 0.84713ZM1.28852 2.81126L5.403 1.43921V12.1885L1.28811 13.5606L1.28852 2.81126ZM5.94152 1.43921L10.0564 2.81126V13.5606L5.94152 12.1885V1.43921ZM14.7094 12.1885L10.5945 13.5606V2.81126L14.7094 1.43921V12.1885Z" fill="#F72585"/>
</g>
<defs>
<clipPath id="clip0_342_1639">
<rect width="14.5" height="13.4077" fill="white" transform="translate(0.75 0.796143)"/>
</clipPath>
</defs>
</svg>
