<svg width="48" height="48" viewBox="0 0 48 48" fill="none" xmlns="http://www.w3.org/2000/svg">
<path d="M24 48C37.2548 48 48 37.2548 48 24C48 10.7452 37.2548 0 24 0C10.7452 0 0 10.7452 0 24C0 37.2548 10.7452 48 24 48Z" fill="#25D366"/>
<path fill-rule="evenodd" clip-rule="evenodd" d="M24.7895 37.3526H24.7836C22.3951 37.3517 20.0482 36.7525 17.9638 35.6155L10.3984 37.6L12.4231 30.2049C11.1742 28.0406 10.517 25.5855 10.5181 23.0703C10.5212 15.2017 16.9233 8.80005 24.7894 8.80005C28.6071 8.8017 32.1903 10.2879 34.8846 12.9855C37.579 15.6829 39.0621 19.2684 39.0606 23.0816C39.0574 30.9483 32.6579 37.3494 24.7895 37.3526ZM18.3125 33.0319L18.7456 33.289C20.5668 34.3697 22.6544 34.9415 24.7829 34.9424H24.7877C31.3254 34.9424 36.6465 29.6212 36.6491 23.0807C36.6504 19.9112 35.4178 16.9311 33.1783 14.689C30.9388 12.4469 27.9606 11.2115 24.7923 11.2104C18.2495 11.2104 12.9284 16.5311 12.9258 23.0711C12.9249 25.3124 13.552 27.4951 14.7393 29.3836L15.0214 29.8324L13.8231 34.2096L18.3125 33.0319ZM31.492 26.1542C31.7407 26.2744 31.9086 26.3555 31.9803 26.4752C32.0694 26.6239 32.0694 27.3379 31.7724 28.171C31.4752 29.0039 30.0506 29.7641 29.3654 29.8664C28.7511 29.9583 27.9737 29.9966 27.1195 29.7251C26.6016 29.5608 25.9374 29.3414 25.0867 28.974C21.7437 27.5305 19.4846 24.2905 19.0576 23.6781C19.0277 23.6352 19.0068 23.6052 18.9951 23.5896L18.9922 23.5858C18.8035 23.334 17.5391 21.6469 17.5391 19.9009C17.5391 18.2583 18.3459 17.3974 18.7173 17.0011C18.7427 16.974 18.7661 16.949 18.7871 16.9261C19.1139 16.5691 19.5003 16.4799 19.738 16.4799C19.9757 16.4799 20.2137 16.4821 20.4214 16.4925C20.4471 16.4938 20.4737 16.4936 20.5013 16.4935C20.7091 16.4922 20.9682 16.4907 21.2237 17.1046C21.3221 17.3409 21.4659 17.6911 21.6177 18.0606C21.9245 18.8076 22.2635 19.6329 22.3231 19.7523C22.4123 19.9308 22.4717 20.139 22.3529 20.3771C22.335 20.4128 22.3185 20.4464 22.3028 20.4786C22.2135 20.6609 22.1478 20.795 21.9963 20.9719C21.9367 21.0414 21.8751 21.1164 21.8136 21.1914C21.6909 21.3408 21.5682 21.4902 21.4614 21.5966C21.2829 21.7744 21.0971 21.9674 21.3051 22.3244C21.5131 22.6814 22.2287 23.849 23.2888 24.7946C24.4283 25.811 25.4187 26.2406 25.9207 26.4583C26.0188 26.5009 26.0982 26.5353 26.1564 26.5645C26.5129 26.743 26.7209 26.7131 26.9289 26.4752C27.1369 26.2373 27.8203 25.434 28.058 25.077C28.2957 24.7202 28.5335 24.7796 28.8603 24.8986C29.1872 25.0177 30.9404 25.8802 31.2969 26.0587C31.3666 26.0936 31.4316 26.125 31.492 26.1542Z" fill="#FDFDFD"/>
</svg>
