<svg width="13" height="16" viewBox="0 0 13 16" fill="none" xmlns="http://www.w3.org/2000/svg">
<g clip-path="url(#clip0_405_12255)">
<path d="M3.9554 1.55473C3.83066 1.51844 3.69741 1.52721 3.57888 1.57949C3.46034 1.63178 3.36403 1.72428 3.30672 1.84087L1.51936 5.72291C1.41056 5.99971 1.40834 6.30778 1.51315 6.58718L5.2208 14.9924C5.27199 15.1074 5.36625 15.1976 5.48303 15.2433C5.59981 15.289 5.72963 15.2866 5.84418 15.2366L12.1376 12.4605C12.2518 12.4096 12.3411 12.3154 12.386 12.1983C12.431 12.0812 12.428 11.9508 12.3776 11.8355L8.66993 3.43025C8.53425 3.16447 8.30525 2.95839 8.02746 2.85212L3.9554 1.55473ZM5.78324 6.5768C5.59019 6.66195 5.37606 6.68757 5.16792 6.65041C4.95979 6.61325 4.76699 6.51498 4.61392 6.36803C4.46085 6.22108 4.35438 6.03205 4.30797 5.82485C4.26155 5.61764 4.27729 5.40156 4.35318 5.20394C4.42907 5.00631 4.56171 4.83602 4.73433 4.71459C4.90694 4.59316 5.11178 4.52604 5.32293 4.52174C5.53409 4.51743 5.74208 4.57612 5.9206 4.69039C6.09913 4.80466 6.24017 4.96937 6.32589 5.1637C6.44084 5.42429 6.44824 5.71956 6.34648 5.98457C6.24471 6.24958 6.04211 6.46261 5.78324 6.5768Z" fill="#F72585"/>
</g>
<defs>
<clipPath id="clip0_405_12255">
<rect width="7.82212" height="13.4094" fill="white" transform="translate(0 3.15723) rotate(-23.8028)"/>
</clipPath>
</defs>
</svg>
