<svg width="21" height="15" viewBox="0 0 21 15" fill="none" xmlns="http://www.w3.org/2000/svg">
<path fill-rule="evenodd" clip-rule="evenodd" d="M1.0083 0.121528C1.19517 0.0439444 1.39966 0 1.61407 0H19.3833C19.5977 0 19.8022 0.0439444 19.9891 0.121528L11.0456 8.63717C10.6617 9.00278 10.318 9.00253 9.93498 8.63717L1.0083 0.121528ZM0 1.66667C0 1.59072 0.00737962 1.51417 0.0168269 1.44097L8.83414 9.86111C9.76046 10.7448 11.2226 10.7434 12.149 9.86111L20.9832 1.44097C20.9926 1.51417 21 1.59072 21 1.66667V13.3333C21 14.2567 20.2795 15 19.3846 15H1.61538C0.720472 15 0 14.2567 0 13.3333V1.66667Z" fill="#64358C"/>
</svg>
