<svg width="12" height="12" viewBox="0 0 12 12" fill="none" xmlns="http://www.w3.org/2000/svg">
<circle cx="6" cy="6" r="6" fill="#F72585"/>
<path d="M6.46937 4.67071C6.90908 4.67071 7.23308 4.40071 7.2948 4.05357C7.35651 3.69871 7.14051 3.42871 6.68537 3.42871C6.23023 3.42871 5.92166 3.69871 5.85994 4.05357C5.79823 4.40071 6.02194 4.67071 6.46937 4.67071ZM5.4588 9.10643H5.90623C6.14537 9.10643 6.30737 8.97528 6.34594 8.73614L6.9168 5.51157C6.95537 5.27243 6.84737 5.14128 6.60823 5.14128H6.15308C5.91394 5.14128 5.75966 5.27243 5.72108 5.51157L5.15023 8.73614C5.11165 8.97528 5.21966 9.10643 5.4588 9.10643Z" fill="white"/>
</svg>
