<svg width="50" height="50" viewBox="0 0 50 50" fill="none" xmlns="http://www.w3.org/2000/svg">
<ellipse cx="24.8469" cy="24.7952" rx="24.8469" ry="24.7952" fill="white"/>
<path fill-rule="evenodd" clip-rule="evenodd" d="M11.3715 14.3411C11.6369 14.2312 11.9272 14.1689 12.2316 14.1689H37.4608C37.7652 14.1689 38.0556 14.2312 38.3209 14.3411L25.6227 26.4067C25.0776 26.9247 24.5897 26.9243 24.0459 26.4067L11.3715 14.3411ZM9.93945 16.5303C9.93945 16.4227 9.94993 16.3142 9.96334 16.2105L22.4824 28.1407C23.7976 29.3928 25.8736 29.3909 27.1889 28.1407L39.7319 16.2105C39.7453 16.3142 39.7558 16.4227 39.7558 16.5303V33.0604C39.7558 34.3687 38.7328 35.4219 37.4622 35.4219H12.233C10.9624 35.4219 9.93945 34.3687 9.93945 33.0604V16.5303Z" fill="#64358C"/>
</svg>
