<svg width="20" height="23" viewBox="0 0 20 23" fill="none" xmlns="http://www.w3.org/2000/svg">
<path d="M14.2747 14.1755C13.8591 13.7543 13.1853 13.7543 12.7698 14.1756C12.3542 14.5968 12.3542 15.2798 12.7698 15.701L14.2747 14.1755ZM16.9806 19.9688C17.3962 20.39 18.07 20.39 18.4855 19.9687C18.9011 19.5474 18.901 18.8644 18.4854 18.4432L16.9806 19.9688ZM12.7698 15.701L16.9806 19.9688L18.4854 18.4432L14.2747 14.1755L12.7698 15.701Z" fill="#4B5153"/>
<path d="M15.8835 8.37596C15.8835 12.6551 12.4636 16.1091 8.26319 16.1091C4.06278 16.1091 0.642857 12.6551 0.642857 8.37596C0.642857 4.09684 4.06278 0.642857 8.26319 0.642857C12.4636 0.642857 15.8835 4.09684 15.8835 8.37596Z" stroke="#4B5153" stroke-width="1.28571"/>
</svg>
