<svg width="12" height="10" viewBox="0 0 12 10" fill="none" xmlns="http://www.w3.org/2000/svg">
<g clip-path="url(#clip0_465_27345)">
<path d="M4.26009 9.39872L4.67985 8.62744H7.32095L7.74072 9.39872H8.38086V10.0001H3.61995V9.39872H4.26009Z" fill="#F72585"/>
<path d="M12 7.70039C12 7.84397 11.9382 7.98167 11.8281 8.0832C11.718 8.18473 11.5688 8.24176 11.4131 8.24176H0.586884C0.509804 8.2418 0.433472 8.22781 0.362253 8.20062C0.291033 8.17342 0.226322 8.13355 0.171818 8.08327C0.117314 8.03299 0.0740864 7.9733 0.0446051 7.9076C0.0151237 7.84191 -3.28526e-05 7.7715 1.62745e-06 7.70039V6.58716H12V7.70039Z" fill="#F72585"/>
<path d="M1.62745e-06 6.13248V0.542101C1.61191e-06 0.398499 0.0618263 0.260774 0.171881 0.159209C0.281935 0.0576433 0.431209 0.000552447 0.586884 0.000488281H11.4131C11.4902 0.000488274 11.5665 0.0144991 11.6378 0.0417207C11.709 0.0689423 11.7737 0.108841 11.8282 0.159138C11.8827 0.209434 11.9259 0.269143 11.9554 0.334853C11.9849 0.400564 12 0.470987 12 0.542101V6.13248H1.62745e-06Z" fill="#F72585"/>
</g>
<defs>
<clipPath id="clip0_465_27345">
<rect width="12" height="10" fill="white" transform="matrix(-1 0 0 1 12 0)"/>
</clipPath>
</defs>
</svg>
