<svg width="16" height="15" viewBox="0 0 16 15" fill="none" xmlns="http://www.w3.org/2000/svg">
<path d="M14.7562 7.00447V0.357143C14.7562 0.262423 14.7188 0.171583 14.6521 0.104605C14.5854 0.0376281 14.4949 0 14.4006 0C14.3063 0 14.2159 0.0376281 14.1492 0.104605C14.0825 0.171583 14.045 0.262423 14.045 0.357143V7.00447C13.6917 7.08567 13.3762 7.28493 13.1503 7.56964C12.9243 7.85436 12.8013 8.20766 12.8013 8.57175C12.8013 8.93583 12.9243 9.28914 13.1503 9.57385C13.3762 9.85857 13.6917 10.0578 14.045 10.139V14.6429C14.045 14.7376 14.0825 14.8284 14.1492 14.8954C14.2159 14.9624 14.3063 15 14.4006 15C14.4949 15 14.5854 14.9624 14.6521 14.8954C14.7188 14.8284 14.7562 14.7376 14.7562 14.6429V10.139C15.1096 10.0578 15.4251 9.85857 15.651 9.57385C15.877 9.28914 16 8.93583 16 8.57175C16 8.20766 15.877 7.85436 15.651 7.56964C15.4251 7.28493 15.1096 7.08567 14.7562 7.00447ZM8.35559 1.64732V0.357143C8.35559 0.262423 8.31813 0.171583 8.25144 0.104605C8.18475 0.0376282 8.09431 0 8 0C7.90569 0 7.81524 0.0376282 7.74856 0.104605C7.68187 0.171583 7.64441 0.262423 7.64441 0.357143V1.64732C7.29103 1.72852 6.97556 1.92778 6.74962 2.2125C6.52368 2.49721 6.40064 2.85052 6.40064 3.2146C6.40064 3.57869 6.52368 3.932 6.74962 4.21671C6.97556 4.50143 7.29103 4.70069 7.64441 4.78189V14.6429C7.64441 14.7376 7.68187 14.8284 7.74856 14.8954C7.81524 14.9624 7.90569 15 8 15C8.09431 15 8.18475 14.9624 8.25144 14.8954C8.31813 14.8284 8.35559 14.7376 8.35559 14.6429V4.78189C8.70896 4.70069 9.02443 4.50143 9.25038 4.21671C9.47632 3.932 9.59936 3.57869 9.59936 3.2146C9.59936 2.85052 9.47632 2.49721 9.25038 2.2125C9.02443 1.92778 8.70896 1.72852 8.35559 1.64732ZM1.95495 10.2188V0.357143C1.95495 0.262423 1.91749 0.171583 1.8508 0.104605C1.78412 0.0376282 1.69367 0 1.59936 0C1.50505 0 1.41461 0.0376282 1.34792 0.104605C1.28123 0.171583 1.24377 0.262423 1.24377 0.357143V10.2188C0.890396 10.3 0.574926 10.4992 0.348983 10.7839C0.123039 11.0686 0 11.4219 0 11.786C0 12.1501 0.123039 12.5034 0.348983 12.7881C0.574926 13.0729 0.890396 13.2721 1.24377 13.3533V14.6429C1.24377 14.6898 1.25297 14.7362 1.27084 14.7795C1.28871 14.8229 1.3149 14.8622 1.34792 14.8954C1.38094 14.9286 1.42014 14.9549 1.46328 14.9728C1.50642 14.9908 1.55266 15 1.59936 15C1.64606 15 1.6923 14.9908 1.73544 14.9728C1.77858 14.9549 1.81778 14.9286 1.8508 14.8954C1.88382 14.8622 1.91001 14.8229 1.92788 14.7795C1.94575 14.7362 1.95495 14.6898 1.95495 14.6429V13.3533C2.30833 13.2721 2.62379 13.0729 2.84974 12.7881C3.07568 12.5034 3.19872 12.1501 3.19872 11.786C3.19872 11.4219 3.07568 11.0686 2.84974 10.7839C2.62379 10.4992 2.30833 10.3 1.95495 10.2188Z" fill="black"/>
</svg>
