<svg width="21" height="21" viewBox="0 0 21 21" fill="none" xmlns="http://www.w3.org/2000/svg">
<g clip-path="url(#clip0_416_13671)">
<path d="M15.5705 5.73831C15.5696 7.12226 15.0195 8.44927 14.0409 9.42787C13.0623 10.4065 11.7353 10.9566 10.3513 10.9575C7.47072 10.9575 5.11981 8.618 5.11981 5.73831C5.12078 4.35441 5.67097 3.02746 6.64954 2.04889C7.62811 1.07032 8.95505 0.520135 10.339 0.519165C13.22 0.51825 15.5705 2.85725 15.5705 5.73831Z" fill="#F72585" stroke="#F72585" stroke-width="1.03696" stroke-miterlimit="25.17"/>
<path d="M20.0301 19.5311H0.660176C0.660176 19.5311 -0.307656 15.6478 2.81468 14.023C3.48309 13.6774 4.23392 13.5391 4.98108 13.5391H15.7092C16.4582 13.5391 17.2072 13.6765 17.8751 14.023C20.9979 15.6478 20.0301 19.5311 20.0301 19.5311Z" fill="#F72585" stroke="#F72585" stroke-width="1.03696" stroke-miterlimit="25.17" stroke-linecap="round"/>
</g>
<defs>
<clipPath id="clip0_416_13671">
<rect width="20.6903" height="20.0498" fill="white"/>
</clipPath>
</defs>
</svg>
