<svg width="138" height="38" viewBox="0 0 138 38" fill="none" xmlns="http://www.w3.org/2000/svg">
<path fill-rule="evenodd" clip-rule="evenodd" d="M5.55705 0H132.443C135.512 0 138 2.48946 138 5.56098V32.439C138 35.5105 135.512 38 132.443 38H5.55705C2.4877 38 0 35.5105 0 32.439V5.56098C0 2.48946 2.4877 0 5.55705 0Z" fill="#32364E"/>
<path fill-rule="evenodd" clip-rule="evenodd" d="M66.2282 24.5997H64.8712L65.9219 21.9578L63.8307 16.5861H65.2647L66.579 20.2419L67.9035 16.5861H69.3376L66.2282 24.5997ZM61.0164 22.2923C60.5458 22.2923 60.0641 22.1146 59.626 21.7688V22.1591H58.2254V14.1455H59.626V16.966C60.0641 16.6315 60.5458 16.4529 61.0164 16.4529C62.4839 16.4529 63.4909 17.6567 63.4909 19.3726C63.4909 21.0885 62.4839 22.2923 61.0164 22.2923ZM60.7212 17.6784C60.3379 17.6784 59.9546 17.8457 59.626 18.1802V20.565C59.9546 20.8995 60.3379 21.0668 60.7212 21.0668C61.5093 21.0668 62.0569 20.3761 62.0569 19.3726C62.0569 18.3701 61.5093 17.6784 60.7212 17.6784ZM52.5532 21.7688C52.1263 22.1146 51.6446 22.2923 51.1628 22.2923C49.7065 22.2923 48.6892 21.0885 48.6892 19.3726C48.6892 17.6567 49.7065 16.4529 51.1628 16.4529C51.6446 16.4529 52.1263 16.6315 52.5532 16.966V14.1455H53.9659V22.1591H52.5532V21.7688ZM52.5532 18.1802C52.2358 17.8457 51.8525 17.6784 51.4691 17.6784C50.67 17.6784 50.1233 18.3701 50.1233 19.3726C50.1233 20.3761 50.67 21.0668 51.4691 21.0668C51.8525 21.0668 52.2358 20.8995 52.5532 20.565V18.1802ZM44.2107 19.7628C44.298 20.6095 44.9551 21.1896 45.875 21.1896C46.378 21.1896 46.9368 20.9997 47.5058 20.6652V21.8576C46.882 22.1477 46.2583 22.2923 45.6448 22.2923C43.9917 22.2923 42.8315 21.0668 42.8315 19.3282C42.8315 17.6454 43.9703 16.4529 45.5352 16.4529C46.9693 16.4529 47.9439 17.6009 47.9439 19.2394C47.9439 19.3953 47.9439 19.5729 47.9216 19.7628H44.2107ZM45.4805 17.5565C44.802 17.5565 44.2766 18.0687 44.2107 18.8378H46.5971C46.5535 18.08 46.1042 17.5565 45.4805 17.5565ZM40.5212 18.4362V22.1591H39.1196V16.5861H40.5212V17.1436C40.9148 16.6976 41.3965 16.4529 41.8671 16.4529C42.0211 16.4529 42.1743 16.4643 42.3274 16.5087V17.7795C42.1743 17.7342 41.9989 17.7124 41.8346 17.7124C41.3751 17.7124 40.8823 17.9685 40.5212 18.4362ZM34.269 19.7628C34.3571 20.6095 35.0134 21.1896 35.9332 21.1896C36.4372 21.1896 36.995 20.9997 37.5649 20.6652V21.8576C36.9403 22.1477 36.3165 22.2923 35.703 22.2923C34.0499 22.2923 32.8897 21.0668 32.8897 19.3282C32.8897 17.6454 34.0286 16.4529 35.5935 16.4529C37.0285 16.4529 38.0021 17.6009 38.0021 19.2394C38.0021 19.3953 38.0021 19.5729 37.9808 19.7628H34.269ZM35.5387 17.5565C34.8602 17.5565 34.3349 18.0687 34.269 18.8378H36.6562C36.6117 18.08 36.1634 17.5565 35.5387 17.5565ZM29.3747 22.1591L28.2581 18.3701L27.1526 22.1591H25.893L24.0107 16.5861H25.4113L26.5177 20.3761L27.6232 16.5861H28.8929L29.9984 20.3761L31.1048 16.5861H32.5054L30.6333 22.1591H29.3747ZM20.8131 22.2923C19.16 22.2923 17.9886 21.0781 17.9886 19.3726C17.9886 17.6567 19.16 16.4529 20.8131 16.4529C22.4662 16.4529 23.6264 17.6567 23.6264 19.3726C23.6264 21.0781 22.4662 22.2923 20.8131 22.2923ZM20.8131 17.6454C19.9917 17.6454 19.4227 18.3474 19.4227 19.3726C19.4227 20.3978 19.9917 21.0998 20.8131 21.0998C21.6234 21.0998 22.1924 20.3978 22.1924 19.3726C22.1924 18.3474 21.6234 17.6454 20.8131 17.6454ZM14.6602 19.4066H13.4006V22.1591H12V14.4913H14.6602C16.1926 14.4913 17.2869 15.5052 17.2869 16.9546C17.2869 18.4032 16.1926 19.4066 14.6602 19.4066ZM14.4625 15.6507H13.4006V18.2472H14.4625C15.2728 18.2472 15.8417 17.7238 15.8417 16.9546C15.8417 16.1742 15.2728 15.6507 14.4625 15.6507ZM126.954 20.1049H120.224C120.377 21.7452 121.558 22.228 122.897 22.228C124.263 22.228 125.338 21.9361 126.275 21.4542V24.2737C125.34 24.8 124.108 25.1808 122.464 25.1808C119.116 25.1808 116.77 23.0463 116.77 18.8255C116.77 15.2614 118.76 12.4306 122.031 12.4306C125.296 12.4306 127 15.2605 127 18.8444C127 19.1827 126.969 19.9159 126.954 20.1049ZM122.008 15.2841C121.149 15.2841 120.194 15.9446 120.194 17.5216H123.748C123.748 15.9465 122.853 15.2841 122.008 15.2841ZM111.317 25.1808C110.115 25.1808 109.379 24.6639 108.886 24.2954L108.878 28.2554L105.441 29L105.439 12.6639H108.467L108.645 13.5285C109.121 13.0759 109.991 12.4306 111.339 12.4306C113.753 12.4306 116.027 14.6444 116.027 18.7187C116.027 23.1663 113.777 25.1808 111.317 25.1808ZM110.517 15.5307C109.727 15.5307 109.234 15.8246 108.875 16.2243L108.896 21.4249C109.229 21.7924 109.711 22.0891 110.517 22.0891C111.788 22.0891 112.64 20.6803 112.64 18.7962C112.64 16.965 111.775 15.5307 110.517 15.5307ZM100.584 12.6639H104.035V24.9304H100.584V12.6639ZM100.584 8.7474L104.035 8V10.8507L100.584 11.5972V8.7474ZM97.0188 16.6145V24.9304H93.5826V12.6639H96.5547L96.7709 13.6986C97.5748 12.1924 99.1824 12.4976 99.64 12.6649V15.8813C99.2028 15.7376 97.8309 15.5279 97.0188 16.6145ZM89.7632 20.6265C89.7632 22.6891 91.9323 22.0476 92.3732 21.868V24.7169C91.9147 24.9729 91.084 25.1808 89.9599 25.1808C87.9198 25.1808 86.3892 23.651 86.3892 21.5789L86.4041 10.3509L89.7604 9.6252L89.7632 12.6639H92.3741V15.6479H89.7632V20.6265ZM85.5919 21.2236C85.5919 23.7427 83.6223 25.1808 80.7635 25.1808C79.5782 25.1808 78.2825 24.9465 77.0044 24.3861V21.045C78.1581 21.6838 79.6283 22.1628 80.7672 22.1628C81.5339 22.1628 82.0862 21.9531 82.0862 21.3068C82.0862 19.6362 76.8596 20.2655 76.8596 16.3906C76.8596 13.9131 78.7187 12.4306 81.507 12.4306C82.6459 12.4306 83.7847 12.6091 84.9236 13.0712V16.3669C83.8775 15.7924 82.5503 15.4665 81.5042 15.4665C80.7839 15.4665 80.3365 15.6781 80.3365 16.2252C80.3365 17.7994 85.5919 17.051 85.5919 21.2236Z" fill="white"/>
</svg>
